<?xml version="1.0" encoding="UTF-8" standalone="no"?>
<!-- Created with Inkscape (http://www.inkscape.org/) -->

<svg
   xmlns:dc="http://purl.org/dc/elements/1.1/"
   xmlns:cc="http://creativecommons.org/ns#"
   xmlns:rdf="http://www.w3.org/1999/02/22-rdf-syntax-ns#"
   xmlns:svg="http://www.w3.org/2000/svg"
   xmlns="http://www.w3.org/2000/svg"
   xmlns:xlink="http://www.w3.org/1999/xlink"
   xmlns:sodipodi="http://sodipodi.sourceforge.net/DTD/sodipodi-0.dtd"
   xmlns:inkscape="http://www.inkscape.org/namespaces/inkscape"
   id="svg3025"
   version="1.1"
   inkscape:version="0.47 r22583"
   width="2104.7244"
   height="2979.9211"
   xml:space="preserve"
   sodipodi:docname="poster_open_source.svg"
   inkscape:export-filename="/home/phc/Dropbox/NZWORK/Workshops/OpenSource-Massey/poster_open_source1.png"
   inkscape:export-xdpi="90"
   inkscape:export-ydpi="90"><metadata
     id="metadata3031"><rdf:RDF><cc:Work
         rdf:about=""><dc:format>image/svg+xml</dc:format><dc:type
           rdf:resource="http://purl.org/dc/dcmitype/StillImage" /><dc:title /></cc:Work></rdf:RDF></metadata><defs
     id="defs3029"><linearGradient
       inkscape:collect="always"
       id="linearGradient4383"><stop
         style="stop-color:#e7ffca;stop-opacity:1;"
         offset="0"
         id="stop4385" /><stop
         style="stop-color:#e7ffca;stop-opacity:0;"
         offset="1"
         id="stop4387" /></linearGradient><inkscape:perspective
       sodipodi:type="inkscape:persp3d"
       inkscape:vp_x="0 : 1489.9606 : 1"
       inkscape:vp_y="0 : 1000 : 0"
       inkscape:vp_z="2104.7244 : 1489.9606 : 1"
       inkscape:persp3d-origin="1052.3622 : 993.30705 : 1"
       id="perspective3461" /><inkscape:perspective
       id="perspective3471"
       inkscape:persp3d-origin="0.5 : 0.33333333 : 1"
       inkscape:vp_z="1 : 0.5 : 1"
       inkscape:vp_y="0 : 1000 : 0"
       inkscape:vp_x="0 : 0.5 : 1"
       sodipodi:type="inkscape:persp3d" /><inkscape:perspective
       id="perspective4396"
       inkscape:persp3d-origin="0.5 : 0.33333333 : 1"
       inkscape:vp_z="1 : 0.5 : 1"
       inkscape:vp_y="0 : 1000 : 0"
       inkscape:vp_x="0 : 0.5 : 1"
       sodipodi:type="inkscape:persp3d" /><inkscape:perspective
       id="perspective4396-1"
       inkscape:persp3d-origin="0.5 : 0.33333333 : 1"
       inkscape:vp_z="1 : 0.5 : 1"
       inkscape:vp_y="0 : 1000 : 0"
       inkscape:vp_x="0 : 0.5 : 1"
       sodipodi:type="inkscape:persp3d" /><inkscape:perspective
       id="perspective4396-4"
       inkscape:persp3d-origin="0.5 : 0.33333333 : 1"
       inkscape:vp_z="1 : 0.5 : 1"
       inkscape:vp_y="0 : 1000 : 0"
       inkscape:vp_x="0 : 0.5 : 1"
       sodipodi:type="inkscape:persp3d" /><inkscape:perspective
       id="perspective2924"
       inkscape:persp3d-origin="0.5 : 0.33333333 : 1"
       inkscape:vp_z="1 : 0.5 : 1"
       inkscape:vp_y="0 : 1000 : 0"
       inkscape:vp_x="0 : 0.5 : 1"
       sodipodi:type="inkscape:persp3d" /><inkscape:perspective
       id="perspective2938"
       inkscape:persp3d-origin="0.5 : 0.33333333 : 1"
       inkscape:vp_z="1 : 0.5 : 1"
       inkscape:vp_y="0 : 1000 : 0"
       inkscape:vp_x="0 : 0.5 : 1"
       sodipodi:type="inkscape:persp3d" /><inkscape:perspective
       id="perspective2952"
       inkscape:persp3d-origin="0.5 : 0.33333333 : 1"
       inkscape:vp_z="1 : 0.5 : 1"
       inkscape:vp_y="0 : 1000 : 0"
       inkscape:vp_x="0 : 0.5 : 1"
       sodipodi:type="inkscape:persp3d" /><inkscape:perspective
       id="perspective2966"
       inkscape:persp3d-origin="0.5 : 0.33333333 : 1"
       inkscape:vp_z="1 : 0.5 : 1"
       inkscape:vp_y="0 : 1000 : 0"
       inkscape:vp_x="0 : 0.5 : 1"
       sodipodi:type="inkscape:persp3d" /><inkscape:perspective
       id="perspective2980"
       inkscape:persp3d-origin="0.5 : 0.33333333 : 1"
       inkscape:vp_z="1 : 0.5 : 1"
       inkscape:vp_y="0 : 1000 : 0"
       inkscape:vp_x="0 : 0.5 : 1"
       sodipodi:type="inkscape:persp3d" /><inkscape:perspective
       id="perspective2994"
       inkscape:persp3d-origin="0.5 : 0.33333333 : 1"
       inkscape:vp_z="1 : 0.5 : 1"
       inkscape:vp_y="0 : 1000 : 0"
       inkscape:vp_x="0 : 0.5 : 1"
       sodipodi:type="inkscape:persp3d" /><inkscape:perspective
       id="perspective3008"
       inkscape:persp3d-origin="0.5 : 0.33333333 : 1"
       inkscape:vp_z="1 : 0.5 : 1"
       inkscape:vp_y="0 : 1000 : 0"
       inkscape:vp_x="0 : 0.5 : 1"
       sodipodi:type="inkscape:persp3d" /><inkscape:perspective
       id="perspective3022"
       inkscape:persp3d-origin="0.5 : 0.33333333 : 1"
       inkscape:vp_z="1 : 0.5 : 1"
       inkscape:vp_y="0 : 1000 : 0"
       inkscape:vp_x="0 : 0.5 : 1"
       sodipodi:type="inkscape:persp3d" /><inkscape:perspective
       id="perspective3036"
       inkscape:persp3d-origin="0.5 : 0.33333333 : 1"
       inkscape:vp_z="1 : 0.5 : 1"
       inkscape:vp_y="0 : 1000 : 0"
       inkscape:vp_x="0 : 0.5 : 1"
       sodipodi:type="inkscape:persp3d" /><inkscape:perspective
       id="perspective3050"
       inkscape:persp3d-origin="0.5 : 0.33333333 : 1"
       inkscape:vp_z="1 : 0.5 : 1"
       inkscape:vp_y="0 : 1000 : 0"
       inkscape:vp_x="0 : 0.5 : 1"
       sodipodi:type="inkscape:persp3d" /><inkscape:perspective
       id="perspective3869"
       inkscape:persp3d-origin="0.5 : 0.33333333 : 1"
       inkscape:vp_z="1 : 0.5 : 1"
       inkscape:vp_y="0 : 1000 : 0"
       inkscape:vp_x="0 : 0.5 : 1"
       sodipodi:type="inkscape:persp3d" /><inkscape:perspective
       id="perspective3883"
       inkscape:persp3d-origin="0.5 : 0.33333333 : 1"
       inkscape:vp_z="1 : 0.5 : 1"
       inkscape:vp_y="0 : 1000 : 0"
       inkscape:vp_x="0 : 0.5 : 1"
       sodipodi:type="inkscape:persp3d" /><inkscape:perspective
       id="perspective3897"
       inkscape:persp3d-origin="0.5 : 0.33333333 : 1"
       inkscape:vp_z="1 : 0.5 : 1"
       inkscape:vp_y="0 : 1000 : 0"
       inkscape:vp_x="0 : 0.5 : 1"
       sodipodi:type="inkscape:persp3d" /><clipPath
       id="clipPath3921"
       clipPathUnits="userSpaceOnUse"><path
         id="path3923"
         d="M 0,1298.75 0,0 l 4802.44,0 0,1298.75 -4802.44,0 z" /></clipPath><inkscape:perspective
       id="perspective3911"
       inkscape:persp3d-origin="0.5 : 0.33333333 : 1"
       inkscape:vp_z="1 : 0.5 : 1"
       inkscape:vp_y="0 : 1000 : 0"
       inkscape:vp_x="0 : 0.5 : 1"
       sodipodi:type="inkscape:persp3d" /><inkscape:perspective
       id="perspective3961"
       inkscape:persp3d-origin="0.5 : 0.33333333 : 1"
       inkscape:vp_z="1 : 0.5 : 1"
       inkscape:vp_y="0 : 1000 : 0"
       inkscape:vp_x="0 : 0.5 : 1"
       sodipodi:type="inkscape:persp3d" /><clipPath
       id="clipPath3985"
       clipPathUnits="userSpaceOnUse"><path
         id="path3987"
         d="M 0,4999.88 0,0 l 5309.73,0 0,4999.88 -5309.73,0 z" /></clipPath><inkscape:perspective
       id="perspective3975"
       inkscape:persp3d-origin="0.5 : 0.33333333 : 1"
       inkscape:vp_z="1 : 0.5 : 1"
       inkscape:vp_y="0 : 1000 : 0"
       inkscape:vp_x="0 : 0.5 : 1"
       sodipodi:type="inkscape:persp3d" /><inkscape:perspective
       id="perspective4277"
       inkscape:persp3d-origin="0.5 : 0.33333333 : 1"
       inkscape:vp_z="1 : 0.5 : 1"
       inkscape:vp_y="0 : 1000 : 0"
       inkscape:vp_x="0 : 0.5 : 1"
       sodipodi:type="inkscape:persp3d" /><inkscape:perspective
       id="perspective4291"
       inkscape:persp3d-origin="0.5 : 0.33333333 : 1"
       inkscape:vp_z="1 : 0.5 : 1"
       inkscape:vp_y="0 : 1000 : 0"
       inkscape:vp_x="0 : 0.5 : 1"
       sodipodi:type="inkscape:persp3d" /><inkscape:perspective
       id="perspective4313"
       inkscape:persp3d-origin="0.5 : 0.33333333 : 1"
       inkscape:vp_z="1 : 0.5 : 1"
       inkscape:vp_y="0 : 1000 : 0"
       inkscape:vp_x="0 : 0.5 : 1"
       sodipodi:type="inkscape:persp3d" /><inkscape:perspective
       id="perspective4370"
       inkscape:persp3d-origin="0.5 : 0.33333333 : 1"
       inkscape:vp_z="1 : 0.5 : 1"
       inkscape:vp_y="0 : 1000 : 0"
       inkscape:vp_x="0 : 0.5 : 1"
       sodipodi:type="inkscape:persp3d" /><inkscape:perspective
       id="perspective4427"
       inkscape:persp3d-origin="0.5 : 0.33333333 : 1"
       inkscape:vp_z="1 : 0.5 : 1"
       inkscape:vp_y="0 : 1000 : 0"
       inkscape:vp_x="0 : 0.5 : 1"
       sodipodi:type="inkscape:persp3d" /><inkscape:perspective
       id="perspective4460"
       inkscape:persp3d-origin="0.5 : 0.33333333 : 1"
       inkscape:vp_z="1 : 0.5 : 1"
       inkscape:vp_y="0 : 1000 : 0"
       inkscape:vp_x="0 : 0.5 : 1"
       sodipodi:type="inkscape:persp3d" /><inkscape:perspective
       id="perspective4460-2"
       inkscape:persp3d-origin="0.5 : 0.33333333 : 1"
       inkscape:vp_z="1 : 0.5 : 1"
       inkscape:vp_y="0 : 1000 : 0"
       inkscape:vp_x="0 : 0.5 : 1"
       sodipodi:type="inkscape:persp3d" /><inkscape:perspective
       id="perspective4499"
       inkscape:persp3d-origin="0.5 : 0.33333333 : 1"
       inkscape:vp_z="1 : 0.5 : 1"
       inkscape:vp_y="0 : 1000 : 0"
       inkscape:vp_x="0 : 0.5 : 1"
       sodipodi:type="inkscape:persp3d" /><inkscape:perspective
       id="perspective4521"
       inkscape:persp3d-origin="0.5 : 0.33333333 : 1"
       inkscape:vp_z="1 : 0.5 : 1"
       inkscape:vp_y="0 : 1000 : 0"
       inkscape:vp_x="0 : 0.5 : 1"
       sodipodi:type="inkscape:persp3d" /><inkscape:perspective
       id="perspective3082"
       inkscape:persp3d-origin="0.5 : 0.33333333 : 1"
       inkscape:vp_z="1 : 0.5 : 1"
       inkscape:vp_y="0 : 1000 : 0"
       inkscape:vp_x="0 : 0.5 : 1"
       sodipodi:type="inkscape:persp3d" /><inkscape:perspective
       id="perspective3096"
       inkscape:persp3d-origin="0.5 : 0.33333333 : 1"
       inkscape:vp_z="1 : 0.5 : 1"
       inkscape:vp_y="0 : 1000 : 0"
       inkscape:vp_x="0 : 0.5 : 1"
       sodipodi:type="inkscape:persp3d" /><inkscape:perspective
       id="perspective3110"
       inkscape:persp3d-origin="0.5 : 0.33333333 : 1"
       inkscape:vp_z="1 : 0.5 : 1"
       inkscape:vp_y="0 : 1000 : 0"
       inkscape:vp_x="0 : 0.5 : 1"
       sodipodi:type="inkscape:persp3d" /><inkscape:perspective
       id="perspective3124"
       inkscape:persp3d-origin="0.5 : 0.33333333 : 1"
       inkscape:vp_z="1 : 0.5 : 1"
       inkscape:vp_y="0 : 1000 : 0"
       inkscape:vp_x="0 : 0.5 : 1"
       sodipodi:type="inkscape:persp3d" /><inkscape:perspective
       id="perspective3138"
       inkscape:persp3d-origin="0.5 : 0.33333333 : 1"
       inkscape:vp_z="1 : 0.5 : 1"
       inkscape:vp_y="0 : 1000 : 0"
       inkscape:vp_x="0 : 0.5 : 1"
       sodipodi:type="inkscape:persp3d" /><inkscape:perspective
       id="perspective3165"
       inkscape:persp3d-origin="60 : 14 : 1"
       inkscape:vp_z="120 : 21 : 1"
       inkscape:vp_y="0 : 1000 : 0"
       inkscape:vp_x="0 : 21 : 1"
       sodipodi:type="inkscape:persp3d" /><inkscape:perspective
       id="perspective3261"
       inkscape:persp3d-origin="0.5 : 0.33333333 : 1"
       inkscape:vp_z="1 : 0.5 : 1"
       inkscape:vp_y="0 : 1000 : 0"
       inkscape:vp_x="0 : 0.5 : 1"
       sodipodi:type="inkscape:persp3d" /><inkscape:perspective
       id="perspective3275"
       inkscape:persp3d-origin="0.5 : 0.33333333 : 1"
       inkscape:vp_z="1 : 0.5 : 1"
       inkscape:vp_y="0 : 1000 : 0"
       inkscape:vp_x="0 : 0.5 : 1"
       sodipodi:type="inkscape:persp3d" /><inkscape:perspective
       id="perspective3289"
       inkscape:persp3d-origin="0.5 : 0.33333333 : 1"
       inkscape:vp_z="1 : 0.5 : 1"
       inkscape:vp_y="0 : 1000 : 0"
       inkscape:vp_x="0 : 0.5 : 1"
       sodipodi:type="inkscape:persp3d" /><inkscape:perspective
       id="perspective3303"
       inkscape:persp3d-origin="0.5 : 0.33333333 : 1"
       inkscape:vp_z="1 : 0.5 : 1"
       inkscape:vp_y="0 : 1000 : 0"
       inkscape:vp_x="0 : 0.5 : 1"
       sodipodi:type="inkscape:persp3d" /><inkscape:perspective
       id="perspective3467"
       inkscape:persp3d-origin="0.5 : 0.33333333 : 1"
       inkscape:vp_z="1 : 0.5 : 1"
       inkscape:vp_y="0 : 1000 : 0"
       inkscape:vp_x="0 : 0.5 : 1"
       sodipodi:type="inkscape:persp3d" /><inkscape:perspective
       id="perspective3481"
       inkscape:persp3d-origin="0.5 : 0.33333333 : 1"
       inkscape:vp_z="1 : 0.5 : 1"
       inkscape:vp_y="0 : 1000 : 0"
       inkscape:vp_x="0 : 0.5 : 1"
       sodipodi:type="inkscape:persp3d" /><inkscape:perspective
       id="perspective3543"
       inkscape:persp3d-origin="0.5 : 0.33333333 : 1"
       inkscape:vp_z="1 : 0.5 : 1"
       inkscape:vp_y="0 : 1000 : 0"
       inkscape:vp_x="0 : 0.5 : 1"
       sodipodi:type="inkscape:persp3d" /><inkscape:perspective
       id="perspective3565"
       inkscape:persp3d-origin="0.5 : 0.33333333 : 1"
       inkscape:vp_z="1 : 0.5 : 1"
       inkscape:vp_y="0 : 1000 : 0"
       inkscape:vp_x="0 : 0.5 : 1"
       sodipodi:type="inkscape:persp3d" /><inkscape:perspective
       id="perspective3587"
       inkscape:persp3d-origin="0.5 : 0.33333333 : 1"
       inkscape:vp_z="1 : 0.5 : 1"
       inkscape:vp_y="0 : 1000 : 0"
       inkscape:vp_x="0 : 0.5 : 1"
       sodipodi:type="inkscape:persp3d" /><linearGradient
       inkscape:collect="always"
       xlink:href="#linearGradient4383"
       id="linearGradient4389"
       x1="69.377792"
       y1="-88.046387"
       x2="3685.9883"
       y2="1286.7504"
       gradientUnits="userSpaceOnUse" /><inkscape:perspective
       id="perspective4658"
       inkscape:persp3d-origin="0.5 : 0.33333333 : 1"
       inkscape:vp_z="1 : 0.5 : 1"
       inkscape:vp_y="0 : 1000 : 0"
       inkscape:vp_x="0 : 0.5 : 1"
       sodipodi:type="inkscape:persp3d" /><inkscape:perspective
       id="perspective3114"
       inkscape:persp3d-origin="0.5 : 0.33333333 : 1"
       inkscape:vp_z="1 : 0.5 : 1"
       inkscape:vp_y="0 : 1000 : 0"
       inkscape:vp_x="0 : 0.5 : 1"
       sodipodi:type="inkscape:persp3d" /><inkscape:perspective
       id="perspective3191"
       inkscape:persp3d-origin="0.5 : 0.33333333 : 1"
       inkscape:vp_z="1 : 0.5 : 1"
       inkscape:vp_y="0 : 1000 : 0"
       inkscape:vp_x="0 : 0.5 : 1"
       sodipodi:type="inkscape:persp3d" /><inkscape:perspective
       id="perspective3205"
       inkscape:persp3d-origin="0.5 : 0.33333333 : 1"
       inkscape:vp_z="1 : 0.5 : 1"
       inkscape:vp_y="0 : 1000 : 0"
       inkscape:vp_x="0 : 0.5 : 1"
       sodipodi:type="inkscape:persp3d" /><inkscape:perspective
       id="perspective3261-0"
       inkscape:persp3d-origin="0.5 : 0.33333333 : 1"
       inkscape:vp_z="1 : 0.5 : 1"
       inkscape:vp_y="0 : 1000 : 0"
       inkscape:vp_x="0 : 0.5 : 1"
       sodipodi:type="inkscape:persp3d" /></defs><sodipodi:namedview
     pagecolor="#ffffff"
     bordercolor="#666666"
     borderopacity="1"
     objecttolerance="10"
     gridtolerance="10"
     guidetolerance="10"
     inkscape:pageopacity="0"
     inkscape:pageshadow="2"
     inkscape:window-width="1920"
     inkscape:window-height="1118"
     id="namedview3027"
     showgrid="false"
     units="mm"
     inkscape:document-units="mm"
     inkscape:zoom="0.32"
     inkscape:cx="969.36586"
     inkscape:cy="2123.6879"
     inkscape:window-x="1920"
     inkscape:window-y="25"
     inkscape:window-maximized="1"
     inkscape:current-layer="g3033"
     inkscape:snap-bbox="false"
     inkscape:object-nodes="false"
     inkscape:snap-page="true"
     showguides="true"
     inkscape:guide-bbox="true"
     inkscape:snap-nodes="true"
     inkscape:snap-global="false" /><g
     id="g3033"
     inkscape:groupmode="layer"
     inkscape:label="ink_ext_XXXXXX"
     transform="matrix(1.25,0,0,-1.25,0,2979.9217)"><rect
   style="fill:#ffffff;fill-opacity:0.05464113000000000;stroke:#000000;stroke-width:7.3303937;stroke-linejoin:round;stroke-miterlimit:4;stroke-opacity:1;stroke-dasharray:none"
   id="rect4386-4"
   width="1646.2104"
   height="233.78766"
   x="23.480047"
   y="-935.98364"
   ry="28.167185"
   transform="scale(1,-1)" /><image
   y="-874.83289"
   x="35.892662"
   id="image2940"
   height="82.543091"
   width="379.72684"
   xlink:href="file:///home/phc/Dropbox/NZWORK/Workshops/OpenSource-Massey/zotero-webpage.png"
   transform="scale(1,-1)" /><rect
   style="fill:url(#linearGradient4389);fill-opacity:1;stroke:#000000;stroke-width:5.95984251999999959;stroke-linejoin:miter;stroke-miterlimit:4;stroke-opacity:1;stroke-dasharray:none"
   id="rect3601"
   width="2101.9919"
   height="810.40649"
   x="3.6178863"
   y="2.4007702"
   transform="matrix(0.8,0,0,-0.8,0,2383.9374)"
   ry="0" /><flowRoot
   xml:space="preserve"
   id="flowRoot3850"
   style="font-size:48px;font-style:normal;font-weight:normal;text-align:center;line-height:125%;letter-spacing:0px;word-spacing:0px;text-anchor:middle;fill:#000000;fill-opacity:1;stroke:none;font-family:Sans"
   transform="matrix(0.8,0,0,-0.8,-218.64815,3301.4333)"><flowRegion
     id="flowRegion3852"><rect
       id="rect3854"
       width="883.53021"
       height="379.45203"
       x="230.24086"
       y="1329.8616"
       style="font-size:48px;text-align:center;text-anchor:middle;stroke:none" /></flowRegion><flowPara
     id="flowPara3858"
     style="stroke:#000000;stroke-opacity:1">Friday 17th October</flowPara><flowPara
     id="flowPara3862"
     style="stroke:#000000;stroke-opacity:1">15.00-18.00*pm</flowPara><flowPara
     id="flowPara3864"
     style="stroke:#000000;stroke-opacity:1">Venue: Science Tower ScB3.31</flowPara><flowPara
     id="flowPara3866"
     style="stroke:#000000;stroke-opacity:1">Massey University, Palmerston North</flowPara></flowRoot><rect
   style="fill:#ffffff;fill-opacity:0.05464113000000000;stroke:#000000;stroke-width:5.35748031;stroke-linejoin:round;stroke-miterlimit:4;stroke-opacity:1;stroke-dasharray:none"
   id="rect4386-8"
   width="1033.9182"
   height="261.13751"
   x="48.878387"
   y="-639.96753"
   ry="31.462345"
   transform="scale(1,-1)" /><flowRoot
   xml:space="preserve"
   id="flowRoot3892"
   style="font-size:40px;font-style:normal;font-weight:normal;line-height:125%;letter-spacing:0px;word-spacing:0px;fill:#000000;fill-opacity:1;stroke:none;font-family:Sans"
   transform="matrix(0.8,0,0,-0.8,8.3920301,2365.4577)"><flowRegion
     id="flowRegion3894"><rect
       id="rect3896"
       width="1227.9146"
       height="273.47366"
       x="99.771042"
       y="2189.4275"
       style="stroke:none" /></flowRegion><flowPara
     id="flowPara3902"><flowSpan
   style="stroke:#000000;stroke-opacity:1"
   id="flowSpan4648">Registration</flowSpan>:</flowPara><flowPara
     id="flowPara4812">RSVP to <flowSpan
   style="stroke:#000000;stroke-opacity:1"
   id="flowSpan4356">pableras.hdez@gmail.com</flowSpan> as soon as possible OR fill the google form online. <flowSpan
   style="stroke:#000000;stroke-opacity:1"
   id="flowSpan4810">Limited Places.</flowSpan></flowPara><flowPara
     id="flowPara3906">Travel grants for MacDiarmid Institute affiliates are provided by MESA. First come first serve basis. <flowSpan
   style="stroke:#000000;stroke-opacity:1"
   id="flowSpan4808">Register now!</flowSpan></flowPara><flowPara
     id="flowPara3900" /></flowRoot><image
   y="-2691.9253"
   x="5328.4263"
   id="image2968"
   height="452.33173"
   width="458.47162"
   xlink:href="file:///home/phc/Dropbox/NZWORK/Workshops/OpenSource-Massey/Open-Source-Logo.png"
   transform="scale(1,-1)" /><image
   y="-211.52251"
   x="33.723553"
   id="image2996"
   height="162.55609"
   width="381.17075"
   xlink:href="file:///home/phc/Dropbox/NZWORK/Logos/MASSEY%20LOGO_HIGHRES_0.png"
   transform="scale(1,-1)" /><image
   y="-222.99884"
   x="777.92206"
   id="image3038"
   height="171.0374"
   width="415.18048"
   xlink:href="file:///home/phc/Dropbox/NZWORK/Logos/transparent%20logo%20short.png"
   transform="scale(1,-1)" /><image
   y="-232.32893"
   x="1259.3104"
   id="image3052"
   height="181.01463"
   width="340.95609"
   xlink:href="file:///home/phc/Dropbox/NZWORK/Logos/wp-mesa-sq.jpg"
   transform="scale(1,-1)" /><rect
   style="fill:#ffffff;fill-opacity:0.05464113;stroke:#000000;stroke-width:7.38565397;stroke-linejoin:round;stroke-miterlimit:4;stroke-opacity:1;stroke-dasharray:none"
   id="rect4386-4-9"
   width="1642.6927"
   height="279.47327"
   x="22.34461"
   y="-1242.4688"
   ry="33.671467"
   transform="scale(1,-1)" /><g
   transform="matrix(0.65044869,0,0,0.57657847,1302.5448,988.97838)"
   inkscape:label="ink_ext_XXXXXX"
   id="g3913"><g
     transform="matrix(0.1,0,0,0.1,0,29.447689)"
     id="g3915"><g
       id="g3917"><g
         clip-path="url(#clipPath3921)"
         id="g3919"><path
           id="path3925"
           style="fill:#161312;fill-opacity:1;fill-rule:nonzero;stroke:none"
           d="m 924.973,742.875 -403.567,0 c -10.41,0 -18.855,-8.449 -18.855,-18.867 l 0,-197.305 c 0,-10.41 8.445,-18.887 18.855,-18.887 l 157.434,0 0,-245.136 c 0,0 -35.356,-12.051 -133.078,-12.051 -115.301,0 -276.367,42.133 -276.367,396.312 0,354.259 167.714,400.869 325.175,400.869 136.297,0 195.02,-24 232.383,-35.56 11.738,-3.6 22.598,8.09 22.598,18.51 l 45.019,190.64 c 0,4.87 -1.648,10.74 -7.207,14.73 -15.175,10.82 -107.746,62.62 -341.601,62.62 C 276.348,1298.75 0,1184.13 0,633.129 0,82.1094 316.395,0 583.02,0 c 220.757,0 354.683,94.3398 354.683,94.3398 5.52,3.0508 6.113,10.7622 6.113,14.3012 l 0,615.367 c 0,10.418 -8.433,18.867 -18.843,18.867" /><path
           id="path3927"
           style="fill:#161312;fill-opacity:1;fill-rule:nonzero;stroke:none"
           d="m 3004.75,1232.73 c 0,10.5 -8.32,18.97 -18.73,18.97 l -227.23,0 c -10.38,0 -18.82,-8.47 -18.82,-18.97 0,-0.05 0.06,-439.125 0.06,-439.125 l -354.19,0 0,439.125 c 0,10.5 -8.36,18.97 -18.75,18.97 l -227.22,0 c -10.34,0 -18.77,-8.47 -18.77,-18.97 l 0,-1189.0308 c 0,-10.4883 8.43,-19.0273 18.77,-19.0273 l 227.22,0 c 10.39,0 18.75,8.539 18.75,19.0273 l 0,508.5898 354.19,0 c 0,0 -0.62,-508.5507 -0.62,-508.5898 0,-10.4883 8.43,-19.0273 18.82,-19.0273 l 227.77,0 c 10.41,0 18.73,8.539 18.75,19.0273 l 0,1189.0308" /><path
           id="path3929"
           style="fill:#161312;fill-opacity:1;fill-rule:nonzero;stroke:none"
           d="m 1353.76,1076.7 c 0,81.82 -65.6,147.94 -146.53,147.94 -80.85,0 -146.5,-66.12 -146.5,-147.94 0,-81.735 65.65,-148.032 146.5,-148.032 80.93,0 146.53,66.297 146.53,148.032" /><path
           id="path3931"
           style="fill:#161312;fill-opacity:1;fill-rule:nonzero;stroke:none"
           d="m 1337.51,294.52 c 0,30.464 0,548.859 0,548.859 0,10.422 -8.41,18.941 -18.8,18.941 l -226.51,0 c -10.39,0 -19.69,-10.718 -19.69,-21.136 0,0 0,-660.454 0,-786.352 0,-23.1132 14.4,-29.9804 33.04,-29.9804 0,0 96.68,0 204.08,0 22.39,0 27.88,10.9882 27.88,30.3476 0,42.1524 0,207.2698 0,239.3208" /><path
           id="path3933"
           style="fill:#161312;fill-opacity:1;fill-rule:nonzero;stroke:none"
           d="m 3868.32,860.531 -225.49,0 c -10.34,0 -18.76,-8.523 -18.76,-19.011 l 0,-583.02 c 0,0 -57.28,-41.91 -138.59,-41.91 -81.3,0 -102.88,36.89 -102.88,116.5 0,79.707 0,508.43 0,508.43 0,10.488 -8.4,19.011 -18.75,19.011 l -228.85,0 c -10.33,0 -18.79,-8.523 -18.79,-19.011 0,0 0,-310.481 0,-546.93 0,-236.4611 131.79,-294.30875 313.09,-294.30875 148.73,0 268.65,82.16795 268.65,82.16795 0,0 5.71,-43.3008 8.29,-48.4375 2.59,-5.1211 9.32,-10.2929 16.59,-10.2929 l 145.59,0.6406 c 10.33,0 18.79,8.539 18.79,18.9804 l -0.07,798.1802 c 0,10.488 -8.43,19.011 -18.82,19.011" /><path
           id="path3935"
           style="fill:#161312;fill-opacity:1;fill-rule:nonzero;stroke:none"
           d="m 4395.67,217.309 c -78.21,2.382 -131.26,37.871 -131.26,37.871 l 0,376.543 c 0,0 52.34,32.078 116.55,37.812 81.2,7.274 159.44,-17.254 159.44,-210.957 0,-204.258 -35.31,-244.566 -144.73,-241.269 z m 88.94,669.933 c -128.07,0 -215.18,-57.14 -215.18,-57.14 l 0,402.628 c 0,10.5 -8.39,18.97 -18.75,18.97 l -227.87,0 c -10.36,0 -18.78,-8.47 -18.78,-18.97 l 0,-1189.0308 c 0,-10.4883 8.42,-19.0273 18.81,-19.0273 0.02,0 158.05,0 158.1,0 7.12,0 12.51,3.6679 16.49,10.0976 3.93,6.3907 9.6,54.8203 9.6,54.8203 0,0 93.18,-88.30074 269.57,-88.30074 207.08,0 325.84,105.04294 325.84,471.54694 0,366.512 -189.67,414.406 -317.83,414.406" /><path
           id="path3937"
           style="fill:#161312;fill-opacity:1;fill-rule:nonzero;stroke:none"
           d="m 1990.58,862.426 -170.45,0 c 0,0 -0.26,225.134 -0.26,225.184 0,8.52 -4.39,12.78 -14.24,12.78 l -232.28,0 c -9.03,0 -13.88,-3.97 -13.88,-12.65 l 0,-232.697 c 0,0 -116.4,-28.102 -124.27,-30.371 -7.84,-2.274 -13.61,-9.5 -13.61,-18.125 l 0,-146.227 c 0,-10.515 8.4,-18.996 18.79,-18.996 l 119.09,0 c 0,0 0,-152.941 0,-351.785 0,-261.289 183.28,-286.96088 306.96,-286.96088 56.51,0 124.11,18.15238 135.27,22.27348 6.75,2.4804 10.67,9.4687 10.67,17.0468 l 0.19,160.8636 c 0,10.488 -8.86,18.976 -18.84,18.976 -9.93,0 -35.34,-4.039 -61.5,-4.039 -83.72,0 -112.09,38.93 -112.09,89.317 0,50.351 -0.01,334.308 -0.01,334.308 l 170.46,0 c 10.39,0 18.8,8.481 18.8,18.996 l 0,183.16 c 0,10.497 -8.41,18.946 -18.8,18.946" /></g></g></g></g><image
   y="-1230.3259"
   x="1402.0488"
   id="image4279"
   height="133.62601"
   width="136.52032"
   xlink:href="file:///home/phc/Dropbox/NZWORK/Workshops/OpenSource-Massey/PNG/GitHub-Mark-120px-plus.png"
   transform="scale(1,-1)" /><rect
   style="fill:#ffffff;fill-opacity:0.05464113000000000;stroke:#000000;stroke-width:7.64787402;stroke-linejoin:round;stroke-miterlimit:4;stroke-opacity:1;stroke-dasharray:none"
   id="rect4386-4-9-4"
   width="1640.7301"
   height="448.27487"
   x="21.878872"
   y="-1710.3656"
   ry="54.009007"
   transform="scale(1,-1)" /><flowRoot
   xml:space="preserve"
   id="flowRoot3850-3"
   style="font-size:48px;font-style:normal;font-weight:normal;text-align:center;line-height:125%;letter-spacing:0px;word-spacing:0px;text-anchor:middle;fill:#000000;fill-opacity:1;stroke:none;font-family:Sans"
   transform="matrix(0.8,0,0,-0.8,145.50133,2680.1998)"><flowRegion
     id="flowRegion3852-7"><rect
       id="rect3854-8"
       width="1719.2617"
       height="451.80951"
       x="230.24086"
       y="1329.8616"
       style="font-size:48px;text-align:center;text-anchor:middle;fill:#000000;fill-opacity:1;stroke:none" /></flowRegion><flowPara
     id="flowPara3866-1"
     style="font-size:40px;fill:#000000;fill-opacity:1;stroke:none" /><flowPara
     style="font-size:40px;fill:#000000;fill-opacity:1;stroke:none"
     id="flowPara4354">Bring your laptop, with Windows or Mac, and get a fresh install of Ubuntu on it.</flowPara><flowPara
     style="font-size:40px;fill:#000000;fill-opacity:1;stroke:none"
     id="flowPara4421"> We'll guide you to install it using:</flowPara><flowPara
     style="font-size:40px;text-align:start;text-anchor:start;fill:#000000;fill-opacity:1;stroke:none"
     id="flowPara4356">A) <flowSpan
   style="stroke:#000000;stroke-opacity:1"
   id="flowSpan4531">Virtual Machine</flowSpan>. Double click from your operating system to access Linux.</flowPara><flowPara
     style="font-size:40px;text-align:start;text-anchor:start;fill:#000000;fill-opacity:1;stroke:none"
     id="flowPara4358">B) <flowSpan
   style="stroke:#000000;stroke-opacity:1"
   id="flowSpan4533">Dual boot</flowSpan>. Unleash all the linux fun making a partition of your hard-drive, choosing at boot between operating systems (HD backup recommended).</flowPara><flowPara
     style="fill:#000000;fill-opacity:1;stroke:none"
     id="flowPara4360"><flowSpan
   style="font-size:40px;text-align:start;text-anchor:start;fill:#000000;fill-opacity:1;stroke:none"
   id="flowSpan3193">C) Just explore and have fun with a <flowSpan
   style="stroke:#000000;stroke-opacity:1"
   id="flowSpan4535">Live CD</flowSpan> of Linux, nothing will be installed</flowSpan>.</flowPara><flowPara
     style="font-size:44px;fill:#000000;fill-opacity:1;stroke:none"
     id="flowPara4674">Basic <flowSpan
   style="stroke:#000000;stroke-opacity:1"
   id="flowSpan4680">Linux</flowSpan><flowSpan
   style="font-size:44px;stroke:#000000;stroke-opacity:1"
   id="flowSpan4678"> Tutorial</flowSpan> during the installation.</flowPara></flowRoot><flowRoot
   xml:space="preserve"
   id="flowRoot3850-3-3"
   style="font-size:48px;font-style:normal;font-weight:normal;text-align:center;line-height:125%;letter-spacing:0px;word-spacing:0px;text-anchor:middle;fill:#000000;fill-opacity:1;stroke:none;font-family:Sans"
   transform="matrix(0.8,0,0,-0.8,-92.318704,2268.0225)"><flowRegion
     id="flowRegion3852-7-2"><rect
       id="rect3854-8-6"
       width="1466.0099"
       height="339.655"
       x="230.24086"
       y="1329.8616"
       style="font-size:48px;text-align:center;text-anchor:middle;stroke:none" /></flowRegion><flowPara
     style="stroke:none;stroke-opacity:1"
     id="flowPara4360-8"><flowSpan
       style="font-size:40px;stroke:none"
       id="flowSpan3201">Discover <flowSpan
   style="stroke:#000000;stroke-opacity:1"
   id="flowSpan4537">GitHub</flowSpan>, the online platform where the open source happens.</flowSpan></flowPara><flowPara
     style="stroke:none;stroke-opacity:1"
     id="flowPara4415"><flowSpan
       style="font-size:40px;stroke:none"
       id="flowSpan4417">Version control, social coding, interaction, and the fastest community development ever. Also the place to share science-related code, with lot of open projects. </flowSpan></flowPara></flowRoot><flowRoot
   xml:space="preserve"
   id="flowRoot3850-3-3-0"
   style="font-size:48px;font-style:normal;font-weight:normal;text-align:center;line-height:125%;letter-spacing:0px;word-spacing:0px;text-anchor:middle;fill:#000000;fill-opacity:1;stroke:none;font-family:Sans"
   transform="matrix(0.8,0,0,-0.8,246.31544,1979.7771)"><flowRegion
     id="flowRegion3852-7-2-8"><rect
       id="rect3854-8-6-5"
       width="1545.6033"
       height="216.64694"
       x="230.24086"
       y="1329.8616"
       style="font-size:48px;text-align:center;text-anchor:middle;stroke:none" /></flowRegion><flowPara
     style="font-size:40px;text-align:center;text-anchor:middle;stroke:none;stroke-opacity:1"
     id="flowPara4450"><flowSpan
   style="stroke:#000000;stroke-opacity:1"
   id="flowSpan4539">Zotero</flowSpan> is the open source brilliant solution to have those tons of PDF research papers under control.</flowPara><flowPara
     style="font-size:40px;text-align:center;text-anchor:middle;stroke:none;stroke-opacity:1"
     id="flowPara3520">EndNote? Mendeley? Explore the open-source, fast-growing alternative to keep a tidy library!</flowPara></flowRoot><flowRoot
   xml:space="preserve"
   id="flowRoot4483"
   style="fill:black;stroke:none;stroke-opacity:1;stroke-width:1px;stroke-linejoin:miter;stroke-linecap:butt;fill-opacity:1;font-family:Bitstream Vera Sans;font-style:normal;font-weight:normal;font-size:40px"><flowRegion
     id="flowRegion4485"><rect
       id="rect4487"
       width="191.74797"
       height="188.13008"
       x="-314.7561"
       y="-475.16022" /></flowRegion><flowPara
     id="flowPara4489" /></flowRoot><image
   y="-2619.0151"
   x="3949.4438"
   id="image3126"
   height="167.2"
   width="193.60001"
   xlink:href="file:///home/phc/Dropbox/NZWORK/Workshops/OpenSource-Massey/open_source_logo.jpg"
   transform="scale(1,-1)" /><g
   id="layer1"
   inkscape:label="Layer 1"
   transform="matrix(1.7526491,0,0,-1.9183005,32.074348,348.34729)"><g
     inkscape:export-ydpi="300.23013"
     inkscape:export-xdpi="300.23013"
     inkscape:export-filename="/mnt/hgfs/Bov/Documents/Work/2007/cc/identity/srr buttons/big/by.png"
     id="g260"
     transform="matrix(0.9937728,0,0,0.9936696,-177.69267,6.25128e-7)"><path
       style="fill:#aab2ab"
       d="m 181.96579,0.51074 114.06396,0.20264 c 1.59375,0 3.01758,-0.23633 3.01758,3.18066 l -0.13965,37.56689 -119.82031,0 0,-37.70654 c 0,-1.68505 0.16309,-3.24365 2.87842,-3.24365 z"
       nodetypes="ccccccc"
       id="path3817_1_" /><path
       id="path263"
       d="m 297.29636,0 -116.229,0 c -1.24658,0 -2.26123,1.01416 -2.26123,2.26074 l 0,39.49658 c 0,0.28174 0.229,0.51025 0.51074,0.51025 l 119.73047,0 c 0.28174,0 0.51074,-0.22852 0.51074,-0.51025 l 0,-39.49658 C 299.55807,1.01416 298.54343,0 297.29636,0 z m -116.22901,1.02148 116.229,0 c 0.68408,0 1.24023,0.55566 1.24023,1.23926 0,0 0,15.94824 0,27.44971 l -83.34424,0 c -3.04492,5.50586 -8.91113,9.24414 -15.64355,9.24414 -6.73535,0 -12.6001,-3.73486 -15.64355,-9.24414 l -4.07764,0 c 0,-11.50146 0,-27.44971 0,-27.44971 1e-5,-0.68359 0.55616,-1.23926 1.23975,-1.23926 z" /><g
       id="g265"
       enable-background="new    "><path
         style="fill:#ffffff"
         id="path267"
         d="m 253.07761,32.95605 c 0.31738,0 0.60742,0.02832 0.87012,0.08398 0.26172,0.05566 0.48535,0.14746 0.67285,0.27539 0.18652,0.12695 0.33203,0.29688 0.43457,0.50781 0.10254,0.21191 0.1543,0.47266 0.1543,0.78418 0,0.33594 -0.0762,0.61523 -0.22949,0.83887 -0.15234,0.22461 -0.37891,0.40723 -0.67773,0.55078 0.41211,0.11816 0.71973,0.3252 0.92285,0.62109 0.20312,0.29589 0.30469,0.65234 0.30469,1.06934 0,0.33594 -0.0654,0.62695 -0.19629,0.87305 -0.13086,0.24512 -0.30762,0.44629 -0.52832,0.60156 -0.22168,0.15625 -0.47461,0.27148 -0.75781,0.3457 -0.28418,0.0752 -0.5752,0.1123 -0.875,0.1123 l -3.23635,0 0,-6.66406 3.14161,0 0,10e-6 z m -0.1875,2.69532 c 0.26172,0 0.47656,-0.0625 0.64551,-0.18652 0.16797,-0.12402 0.25195,-0.3252 0.25195,-0.60449 0,-0.15527 -0.0283,-0.2832 -0.084,-0.38184 -0.0566,-0.09961 -0.13086,-0.17676 -0.22461,-0.2334 -0.0937,-0.05566 -0.20117,-0.09473 -0.32227,-0.11621 -0.1211,-0.02148 -0.24805,-0.03223 -0.37793,-0.03223 l -1.37402,0 0,1.55469 1.48535,0 z m 0.0859,2.82812 c 0.14355,0 0.28027,-0.01367 0.41113,-0.04199 0.13086,-0.02832 0.24609,-0.0752 0.34668,-0.13965 0.0996,-0.06543 0.17871,-0.1543 0.23828,-0.2666 0.0596,-0.11133 0.0889,-0.25488 0.0889,-0.42871 0,-0.3418 -0.0967,-0.58594 -0.29004,-0.73242 -0.19336,-0.14551 -0.44922,-0.21875 -0.7666,-0.21875 l -1.59961,0 0,1.82812 1.57129,0 z" /><path
         style="fill:#ffffff"
         id="path269"
         d="m 255.78854,32.95605 1.64355,0 1.56055,2.63184 1.55078,-2.63184 1.63379,0 -2.47363,4.10645 0,2.55762 -1.46875,0 0,-2.59473 -2.44629,-4.06934 z" /></g><g
       transform="matrix(0.872921,0,0,0.872921,50.12536,143.2144)"
       id="g5908_1_"><path
         style="fill:#ffffff"
         d="m 186.90065,-141.46002 c 0.006,8.68079 -7.02786,15.7215 -15.70808,15.72711 -8.68022,0.006 -15.72206,-7.02734 -15.7271,-15.70807 0,-0.006 0,-0.0123 0,-0.019 -0.005,-8.68079 7.02786,-15.7215 15.70808,-15.72656 8.68135,-0.006 15.72206,7.02734 15.7271,15.70813 0,0.006 0,0.0123 0,0.0184 z"
         rx="22.939548"
         type="arc"
         cy="264.3577"
         ry="22.939548"
         cx="296.35416"
         id="path5906_1_" /><g
         transform="translate(-289.6157,99.0653)"
         id="g5706_1_"><path
           d="m 473.57574,-253.32751 c 3.48541,3.48541 5.22839,7.75391 5.22839,12.80219 0,5.04938 -1.71277,9.27203 -5.13831,12.66791 -3.63531,3.5766 -7.93182,5.36432 -12.88947,5.36432 -4.89777,0 -9.11987,-1.77319 -12.66513,-5.31952 -3.54581,-3.54584 -5.31845,-7.78302 -5.31845,-12.71271 0,-4.92859 1.77264,-9.19598 5.31845,-12.80219 3.4552,-3.48651 7.67728,-5.22949 12.66513,-5.22949 5.0483,-10e-6 9.31404,1.74297 12.79939,5.22949 z m -23.11798,2.34484 c -2.94672,2.97638 -4.41953,6.46289 -4.41953,10.46234 0,3.99835 1.45828,7.45526 4.37424,10.37067 2.9165,2.9165 6.38849,4.37421 10.41705,4.37421 4.02856,0 7.53015,-1.47223 10.50653,-4.4184 2.82593,-2.73645 4.23944,-6.17706 4.23944,-10.32648 0,-4.11804 -1.43646,-7.61346 -4.30768,-10.48468 -2.87067,-2.87067 -6.34991,-4.30658 -10.43829,-4.30658 -4.0884,1e-5 -7.54638,1.44318 -10.37176,4.32892 z m 7.75449,8.70319 c -0.45029,-0.98169 -1.1243,-1.47284 -2.02322,-1.47284 -1.58917,0 -2.38345,1.07007 -2.38345,3.20911 0,2.13953 0.79428,3.2085 2.38345,3.2085 1.04938,0 1.79892,-0.52075 2.24866,-1.56451 l 2.20276,1.17297 c -1.04993,1.86548 -2.62509,2.79846 -4.72549,2.79846 -1.6199,0 -2.91763,-0.4967 -3.89206,-1.48901 -0.9761,-0.99341 -1.46274,-2.36273 -1.46274,-4.10852 0,-1.71503 0.50229,-3.07654 1.50748,-4.08502 1.00519,-1.00854 2.25702,-1.51257 3.75781,-1.51257 2.22012,0 3.80981,0.87488 4.77081,2.62286 l -2.38401,1.22057 z m 10.36337,0 c -0.45087,-0.98169 -1.11145,-1.47284 -1.98242,-1.47284 -1.62103,0 -2.43213,1.07007 -2.43213,3.20911 0,2.13953 0.8111,3.2085 2.43213,3.2085 1.05109,0 1.78717,-0.52075 2.20728,-1.56451 l 2.25201,1.17297 c -1.04828,1.86548 -2.62122,2.79846 -4.71771,2.79846 -1.61768,0 -2.9126,-0.4967 -3.88647,-1.48901 -0.97217,-0.99341 -1.45935,-2.36273 -1.45935,-4.10852 0,-1.71503 0.49445,-3.07654 1.48285,-4.08502 0.98785,-1.00854 2.2453,-1.51257 3.7735,-1.51257 2.21619,0 3.80365,0.87488 4.76129,2.62286 l -2.43098,1.22057 z"
           id="path5708_1_" /></g></g><g
       id="g275"><circle
         style="fill:#ffffff"
         sodipodi:ry="10.80664"
         sodipodi:rx="10.80664"
         sodipodi:cy="15.31348"
         sodipodi:cx="255.55124"
         id="circle277"
         r="10.80664"
         cy="15.31348"
         cx="255.55124"
         d="m 266.35788,15.31348 c 0,5.968343 -4.8383,10.80664 -10.80664,10.80664 -5.96834,0 -10.80664,-4.838297 -10.80664,-10.80664 0,-5.9683419 4.8383,-10.8066393 10.80664,-10.8066393 5.96834,0 10.80664,4.8382974 10.80664,10.8066393 z" /><g
         id="g279"><path
           id="path281"
           d="m 258.67819,12.18701 c 0,-0.4165 -0.33789,-0.75391 -0.75293,-0.75391 l -4.77344,0 c -0.41504,0 -0.75293,0.3374 -0.75293,0.75391 l 0,4.77295 1.33105,0 0,5.65186 3.61719,0 0,-5.65186 1.33105,0 0,-4.77295 10e-6,0 z" /><circle
           sodipodi:ry="1.63281"
           sodipodi:rx="1.63281"
           sodipodi:cy="9.1723604"
           sodipodi:cx="255.53854"
           id="circle283"
           r="1.63281"
           cy="9.1723604"
           cx="255.53854"
           d="m 257.17135,9.1723604 c 0,0.9017756 -0.73103,1.6328096 -1.63281,1.6328096 -0.90177,0 -1.63281,-0.731034 -1.63281,-1.6328096 0,-0.901776 0.73104,-1.63281 1.63281,-1.63281 0.90178,0 1.63281,0.731034 1.63281,1.63281 z" /></g><path
         style="fill-rule:evenodd"
         id="path285"
         d="m 255.5239,3.40723 c -3.23242,0 -5.96875,1.12793 -8.20801,3.38379 -2.29785,2.3335 -3.44629,5.0957 -3.44629,8.28467 0,3.18897 1.14844,5.93164 3.44629,8.22656 2.29785,2.29443 5.03418,3.44189 8.20801,3.44189 3.21289,0 5.99805,-1.15625 8.35352,-3.47119 2.21973,-2.19727 3.33008,-4.92969 3.33008,-8.19727 0,-3.26758 -1.12988,-6.02881 -3.3877,-8.28467 -2.25977,-2.25585 -5.02442,-3.38378 -8.2959,-3.38378 z m 0.0293,2.09961 c 2.64844,0 4.89746,0.93408 6.74707,2.80127 1.86914,1.84717 2.80371,4.10303 2.80371,6.76758 0,2.68359 -0.91504,4.91064 -2.74512,6.68018 -1.92871,1.90625 -4.19629,2.85889 -6.80566,2.85889 -2.61035,0 -4.85938,-0.94287 -6.74707,-2.82959 -1.88965,-1.88672 -2.83301,-4.12305 -2.83301,-6.70947 0,-2.58691 0.9541,-4.84229 2.8623,-6.76758 1.83009,-1.8672 4.06934,-2.80128 6.71778,-2.80128 z"
         clip-rule="evenodd" /></g></g></g><flowRoot
   xml:space="preserve"
   id="flowRoot3185"
   style="font-size:40px;font-style:normal;font-weight:normal;fill:#000000;fill-opacity:1;stroke:none;font-family:Bitstream Vera Sans"
   transform="matrix(0.8,0,0,-0.8,515.187,1657.466)"><flowRegion
     id="flowRegion3187"><rect
       id="rect3189"
       width="846.58539"
       height="235.16261"
       x="513.73987"
       y="-250.85127"
       style="font-size:40px" /></flowRegion><flowPara
     id="flowPara3191"
     style="font-size:110px;font-style:normal;font-variant:normal;font-weight:normal;font-stretch:normal;font-family:Serif;-inkscape-font-specification:Serif">WORKSHOP</flowPara></flowRoot><flowRoot
   xml:space="preserve"
   id="flowRoot3203"
   style="font-size:40px;font-style:normal;font-weight:normal;fill:#000000;fill-opacity:1;stroke:none;font-family:Bitstream Vera Sans"
   transform="matrix(0.8,0,0,-0.8,0,2372.3602)"><flowRegion
     id="flowRegion3205"><rect
       id="rect3207"
       width="564.39014"
       height="488.41467"
       x="1497.8049"
       y="136.26256"
       style="font-size:40px" /></flowRegion><flowPara
     id="flowPara3209" /><flowPara
     id="flowPara3211"
     style="stroke:#000000;stroke-opacity:1">Requirements:</flowPara><flowPara
     id="flowPara3506">Just your laptop -old or new + being registered.</flowPara><flowPara
     id="flowPara3215">Open for any student, postgrad, or staff. Priority for IFS and MacDiarmid postgrads.</flowPara><flowPara
     id="flowPara3251" /><flowPara
     id="flowPara3217" /><flowPara
     id="flowPara3227" /></flowRoot><flowRoot
   xml:space="preserve"
   id="flowRoot3229"
   style="font-size:90px;font-style:normal;font-weight:normal;fill:#000000;fill-opacity:1;stroke:none;font-family:Bitstream Vera Sans"
   transform="matrix(0.8,0,0,-0.8,0,2383.9374)"><flowRegion
     id="flowRegion3231"><rect
       id="rect3233"
       width="575.2439"
       height="499.26831"
       x="1436.3008"
       y="2140.5715" /></flowRegion><flowPara
     id="flowPara3235" /></flowRoot><rect
   style="fill:#ffffff;fill-opacity:0.05464113000000000;stroke:#000000;stroke-width:5.35748031;stroke-linejoin:round;stroke-miterlimit:4;stroke-opacity:1;stroke-dasharray:none"
   id="rect4386-8-8"
   width="525.59882"
   height="325.8913"
   x="1123.5747"
   y="-654.97864"
   ry="39.264"
   transform="scale(1,-1)" /><flowRoot
   xml:space="preserve"
   id="flowRoot3237"
   style="font-size:90px;font-style:normal;font-weight:normal;fill:#000000;fill-opacity:1;stroke:none;font-family:Bitstream Vera Sans"
   transform="matrix(0.8,0,0,-0.8,-28.94309,2340.5227)"><flowRegion
     id="flowRegion3239"><rect
       id="rect3241"
       width="596.95142"
       height="387.1142"
       x="1494.187"
       y="2140.5715" /></flowRegion><flowPara
     id="flowPara3243"
     style="font-size:40px">Coffee and tea provided for all attendants.</flowPara><flowPara
     id="flowPara3245"
     style="font-size:40px">After the workshop, we are having a BBQ in town that you are invited to --BYO. Open networking, no laptop required.</flowPara></flowRoot><image
   y="-1608.3029"
   x="40.748028"
   id="image3263"
   height="290.45853"
   width="268.71542"
   xlink:href="file:///home/phc/Dropbox/NZWORK/Workshops/OpenSource-Massey/free-vector-tux-penguin-clip-art_118685_Tux_Penguin_clip_art_hight.png"
   transform="scale(1,-1)" /><image
   y="-2372.095"
   x="536.11993"
   id="image3291"
   height="593.75"
   width="687.5"
   xlink:href="file:///home/phc/Dropbox/NZWORK/Workshops/OpenSource-Massey/opensource-logowrite_noTM.png"
   transform="scale(1,-1)" /><flowRoot
   xml:space="preserve"
   id="flowRoot3185-4"
   style="font-size:75px;font-style:normal;font-weight:normal;fill:#000000;fill-opacity:1;stroke:none;font-family:Bitstream Vera Sans"
   transform="matrix(0.8,0,0,-0.8,-278.78167,1488.8436)"><flowRegion
     id="flowRegion3187-0"><rect
       id="rect3189-7"
       width="1988.0288"
       height="135.67075"
       x="513.73987"
       y="-250.85127"
       style="font-size:75px" /></flowRegion><flowPara
     id="flowPara3191-2"
     style="font-size:75px;font-style:normal;font-variant:normal;font-weight:bold;font-stretch:normal;font-family:Serif;-inkscape-font-specification:Serif Bold">LINUX INSTALLATION AFTERNOON PARTY</flowPara></flowRoot><flowRoot
   xml:space="preserve"
   id="flowRoot3334"
   style="font-size:40px;font-style:normal;font-weight:normal;fill:#000000;fill-opacity:1;stroke:none;font-family:Bitstream Vera Sans"
   transform="matrix(0.8,0,0,-0.8,2167.8373,2378.1487)"><flowRegion
     id="flowRegion3336"><rect
       id="rect3338"
       width="658.45532"
       height="133.86171"
       x="-1233.6992"
       y="2571.1001"
       style="font-size:40px" /></flowRegion><flowPara
     id="flowPara3340"
     style="font-size:36px">organizers: Pablo Hernandez and Elsa Guillot</flowPara></flowRoot><flowRoot
   xml:space="preserve"
   id="flowRoot3342"
   style="font-size:90px;font-style:normal;font-weight:normal;fill:#000000;fill-opacity:1;stroke:none;font-family:Bitstream Vera Sans"
   transform="matrix(0.8,0,0,-0.8,1496.3577,2372.3602)"><flowRegion
     id="flowRegion3344"><rect
       id="rect3346"
       width="853.82117"
       height="137.47975"
       x="-1389.2683"
       y="2513.2139" /></flowRegion><flowPara
     id="flowPara3348">Bring Your Laptop!</flowPara></flowRoot><flowRoot
   xml:space="preserve"
   id="flowRoot3185-3"
   style="font-size:40px;font-style:normal;font-weight:normal;fill:#000000;fill-opacity:1;stroke:none;font-family:Bitstream Vera Sans"
   transform="matrix(0.8,0,0,-0.8,864.47038,2135.7216)"><flowRegion
     id="flowRegion3187-4"><rect
       id="rect3189-8"
       width="392.54062"
       height="124.81709"
       x="513.73987"
       y="-250.85127"
       style="font-size:40px" /></flowRegion><flowPara
     id="flowPara3191-21"
     style="font-size:110px;font-style:normal;font-variant:normal;font-weight:normal;font-stretch:normal;font-family:Serif;-inkscape-font-specification:Serif">FREE!</flowPara></flowRoot><flowRoot
   xml:space="preserve"
   id="flowRoot4393"
   style="font-size:40;font-style:normal;font-weight:normal;fill:#000000;fill-opacity:1;stroke:none;font-family:Bitstream Vera Sans"
   transform="matrix(0.8,0,0,-0.8,0,2383.9374)"><flowRegion
     id="flowRegion4395"><rect
       id="rect4397"
       width="412.43903"
       height="148.33333"
       x="94.065041"
       y="599.35199"
       style="font-size:40" /></flowRegion><flowPara
     id="flowPara4399" /></flowRoot><text
   xml:space="preserve"
   style="font-size:28.79999924px;font-style:normal;font-weight:normal;fill:#000000;fill-opacity:1;stroke:none;font-family:Sans;-inkscape-font-specification:Sans"
   x="28.943108"
   y="-1785.7894"
   id="text4401"
   transform="scale(1,-1)"><tspan
     sodipodi:role="line"
     id="tspan4403"
     x="28.943108"
     y="-1785.7894"><tspan
   style="stroke:#000000;stroke-opacity:1"
   id="tspan4604">*</tspan>: end time is flexible.</tspan><tspan
     sodipodi:role="line"
     x="28.943108"
     y="-1749.7894"
     id="tspan4405">You can drop out after the Linux installation.</tspan></text>



<flowRoot
   xml:space="preserve"
   id="flowRoot4407"
   style="fill:black;stroke:none;stroke-opacity:1;stroke-width:1px;stroke-linejoin:miter;stroke-linecap:butt;fill-opacity:1;font-family:Bitstream Vera Sans;font-style:normal;font-weight:normal;font-size:90"><flowRegion
     id="flowRegion4409"><rect
       id="rect4411"
       width="83.21138"
       height="90.447159"
       x="235.16261"
       y="-312.35535" /></flowRegion><flowPara
     id="flowPara4413" /></flowRoot><image
   y="-236.53601"
   x="484.71271"
   id="image3116"
   height="189.40332"
   width="203.81146"
   xlink:href="file:///home/phc/Dropbox/NZWORK/Logos/FUSSTA_transparent.png"
   transform="scale(1,-1)" /></g></svg>